<mxfile host="app.diagrams.net" modified="2023-09-09T07:39:43.941Z" agent="Mozilla/5.0 (Windows NT 10.0; Win64; x64) AppleWebKit/537.36 (KHTML, like Gecko) Chrome/116.0.0.0 Safari/537.36" etag="SEce-NlOCwx4HXUmzf97" version="21.7.4" type="github">
  <diagram id="C5RBs43oDa-KdzZeNtuy" name="Page-1">
    <mxGraphModel dx="763" dy="482" grid="1" gridSize="10" guides="1" tooltips="1" connect="1" arrows="1" fold="1" page="1" pageScale="1" pageWidth="827" pageHeight="1169" math="0" shadow="0">
      <root>
        <mxCell id="WIyWlLk6GJQsqaUBKTNV-0" />
        <mxCell id="WIyWlLk6GJQsqaUBKTNV-1" parent="WIyWlLk6GJQsqaUBKTNV-0" />
        <mxCell id="HKxjh_wqK_dI9qvHyycY-34" value="" style="edgeStyle=orthogonalEdgeStyle;rounded=0;orthogonalLoop=1;jettySize=auto;html=1;" edge="1" parent="WIyWlLk6GJQsqaUBKTNV-1" source="HKxjh_wqK_dI9qvHyycY-0" target="HKxjh_wqK_dI9qvHyycY-33">
          <mxGeometry relative="1" as="geometry" />
        </mxCell>
        <mxCell id="HKxjh_wqK_dI9qvHyycY-0" value="Start" style="strokeWidth=2;html=1;shape=mxgraph.flowchart.start_1;whiteSpace=wrap;" vertex="1" parent="WIyWlLk6GJQsqaUBKTNV-1">
          <mxGeometry x="360" y="280" width="100" height="60" as="geometry" />
        </mxCell>
        <mxCell id="HKxjh_wqK_dI9qvHyycY-36" value="" style="edgeStyle=orthogonalEdgeStyle;rounded=0;orthogonalLoop=1;jettySize=auto;html=1;" edge="1" parent="WIyWlLk6GJQsqaUBKTNV-1" source="HKxjh_wqK_dI9qvHyycY-33" target="HKxjh_wqK_dI9qvHyycY-37">
          <mxGeometry relative="1" as="geometry">
            <mxPoint x="410" y="560" as="targetPoint" />
          </mxGeometry>
        </mxCell>
        <mxCell id="HKxjh_wqK_dI9qvHyycY-33" value="Input N, M, P" style="shape=parallelogram;perimeter=parallelogramPerimeter;whiteSpace=wrap;html=1;fixedSize=1;strokeWidth=2;" vertex="1" parent="WIyWlLk6GJQsqaUBKTNV-1">
          <mxGeometry x="350" y="420" width="120" height="60" as="geometry" />
        </mxCell>
        <mxCell id="HKxjh_wqK_dI9qvHyycY-39" value="" style="edgeStyle=orthogonalEdgeStyle;rounded=0;orthogonalLoop=1;jettySize=auto;html=1;" edge="1" parent="WIyWlLk6GJQsqaUBKTNV-1" source="HKxjh_wqK_dI9qvHyycY-37" target="HKxjh_wqK_dI9qvHyycY-40">
          <mxGeometry relative="1" as="geometry">
            <mxPoint x="410" y="700" as="targetPoint" />
          </mxGeometry>
        </mxCell>
        <mxCell id="HKxjh_wqK_dI9qvHyycY-37" value="Loop X&lt;br&gt;i &amp;lt; N" style="strokeWidth=2;html=1;shape=mxgraph.flowchart.loop_limit;whiteSpace=wrap;" vertex="1" parent="WIyWlLk6GJQsqaUBKTNV-1">
          <mxGeometry x="360" y="560" width="100" height="60" as="geometry" />
        </mxCell>
        <mxCell id="HKxjh_wqK_dI9qvHyycY-42" value="" style="edgeStyle=orthogonalEdgeStyle;rounded=0;orthogonalLoop=1;jettySize=auto;html=1;" edge="1" parent="WIyWlLk6GJQsqaUBKTNV-1" source="HKxjh_wqK_dI9qvHyycY-40" target="HKxjh_wqK_dI9qvHyycY-41">
          <mxGeometry relative="1" as="geometry" />
        </mxCell>
        <mxCell id="HKxjh_wqK_dI9qvHyycY-40" value="Loop Y&lt;br&gt;j &amp;lt; M" style="strokeWidth=2;html=1;shape=mxgraph.flowchart.loop_limit;whiteSpace=wrap;" vertex="1" parent="WIyWlLk6GJQsqaUBKTNV-1">
          <mxGeometry x="360" y="700" width="100" height="60" as="geometry" />
        </mxCell>
        <mxCell id="HKxjh_wqK_dI9qvHyycY-47" value="" style="edgeStyle=orthogonalEdgeStyle;rounded=0;orthogonalLoop=1;jettySize=auto;html=1;" edge="1" parent="WIyWlLk6GJQsqaUBKTNV-1" source="HKxjh_wqK_dI9qvHyycY-41" target="HKxjh_wqK_dI9qvHyycY-45">
          <mxGeometry relative="1" as="geometry" />
        </mxCell>
        <mxCell id="HKxjh_wqK_dI9qvHyycY-41" value="Input A[i][j]" style="shape=parallelogram;perimeter=parallelogramPerimeter;whiteSpace=wrap;html=1;fixedSize=1;strokeWidth=2;" vertex="1" parent="WIyWlLk6GJQsqaUBKTNV-1">
          <mxGeometry x="350" y="840" width="120" height="60" as="geometry" />
        </mxCell>
        <mxCell id="HKxjh_wqK_dI9qvHyycY-49" value="" style="edgeStyle=orthogonalEdgeStyle;rounded=0;orthogonalLoop=1;jettySize=auto;html=1;" edge="1" parent="WIyWlLk6GJQsqaUBKTNV-1" source="HKxjh_wqK_dI9qvHyycY-45" target="HKxjh_wqK_dI9qvHyycY-48">
          <mxGeometry relative="1" as="geometry" />
        </mxCell>
        <mxCell id="HKxjh_wqK_dI9qvHyycY-45" value="Loop Y" style="strokeWidth=2;html=1;shape=mxgraph.flowchart.loop_limit;whiteSpace=wrap;direction=west;" vertex="1" parent="WIyWlLk6GJQsqaUBKTNV-1">
          <mxGeometry x="360" y="980" width="100" height="60" as="geometry" />
        </mxCell>
        <mxCell id="HKxjh_wqK_dI9qvHyycY-59" value="" style="edgeStyle=orthogonalEdgeStyle;rounded=0;orthogonalLoop=1;jettySize=auto;html=1;" edge="1" parent="WIyWlLk6GJQsqaUBKTNV-1" source="HKxjh_wqK_dI9qvHyycY-48" target="HKxjh_wqK_dI9qvHyycY-51">
          <mxGeometry relative="1" as="geometry" />
        </mxCell>
        <mxCell id="HKxjh_wqK_dI9qvHyycY-48" value="Loop X" style="strokeWidth=2;html=1;shape=mxgraph.flowchart.loop_limit;whiteSpace=wrap;direction=west;" vertex="1" parent="WIyWlLk6GJQsqaUBKTNV-1">
          <mxGeometry x="360" y="1120" width="100" height="60" as="geometry" />
        </mxCell>
        <mxCell id="HKxjh_wqK_dI9qvHyycY-50" value="" style="edgeStyle=orthogonalEdgeStyle;rounded=0;orthogonalLoop=1;jettySize=auto;html=1;" edge="1" parent="WIyWlLk6GJQsqaUBKTNV-1" source="HKxjh_wqK_dI9qvHyycY-51" target="HKxjh_wqK_dI9qvHyycY-53">
          <mxGeometry relative="1" as="geometry">
            <mxPoint x="410" y="1400" as="targetPoint" />
          </mxGeometry>
        </mxCell>
        <mxCell id="HKxjh_wqK_dI9qvHyycY-51" value="Loop X&lt;br&gt;i &amp;lt; M" style="strokeWidth=2;html=1;shape=mxgraph.flowchart.loop_limit;whiteSpace=wrap;" vertex="1" parent="WIyWlLk6GJQsqaUBKTNV-1">
          <mxGeometry x="360" y="1260" width="100" height="60" as="geometry" />
        </mxCell>
        <mxCell id="HKxjh_wqK_dI9qvHyycY-52" value="" style="edgeStyle=orthogonalEdgeStyle;rounded=0;orthogonalLoop=1;jettySize=auto;html=1;" edge="1" parent="WIyWlLk6GJQsqaUBKTNV-1" source="HKxjh_wqK_dI9qvHyycY-53" target="HKxjh_wqK_dI9qvHyycY-55">
          <mxGeometry relative="1" as="geometry" />
        </mxCell>
        <mxCell id="HKxjh_wqK_dI9qvHyycY-53" value="Loop Y&lt;br&gt;j &amp;lt; P" style="strokeWidth=2;html=1;shape=mxgraph.flowchart.loop_limit;whiteSpace=wrap;" vertex="1" parent="WIyWlLk6GJQsqaUBKTNV-1">
          <mxGeometry x="360" y="1400" width="100" height="60" as="geometry" />
        </mxCell>
        <mxCell id="HKxjh_wqK_dI9qvHyycY-54" value="" style="edgeStyle=orthogonalEdgeStyle;rounded=0;orthogonalLoop=1;jettySize=auto;html=1;" edge="1" parent="WIyWlLk6GJQsqaUBKTNV-1" source="HKxjh_wqK_dI9qvHyycY-55" target="HKxjh_wqK_dI9qvHyycY-57">
          <mxGeometry relative="1" as="geometry" />
        </mxCell>
        <mxCell id="HKxjh_wqK_dI9qvHyycY-55" value="Input B[i][j]" style="shape=parallelogram;perimeter=parallelogramPerimeter;whiteSpace=wrap;html=1;fixedSize=1;strokeWidth=2;" vertex="1" parent="WIyWlLk6GJQsqaUBKTNV-1">
          <mxGeometry x="350" y="1540" width="120" height="60" as="geometry" />
        </mxCell>
        <mxCell id="HKxjh_wqK_dI9qvHyycY-56" value="" style="edgeStyle=orthogonalEdgeStyle;rounded=0;orthogonalLoop=1;jettySize=auto;html=1;" edge="1" parent="WIyWlLk6GJQsqaUBKTNV-1" source="HKxjh_wqK_dI9qvHyycY-57" target="HKxjh_wqK_dI9qvHyycY-58">
          <mxGeometry relative="1" as="geometry" />
        </mxCell>
        <mxCell id="HKxjh_wqK_dI9qvHyycY-57" value="Loop Y" style="strokeWidth=2;html=1;shape=mxgraph.flowchart.loop_limit;whiteSpace=wrap;direction=west;" vertex="1" parent="WIyWlLk6GJQsqaUBKTNV-1">
          <mxGeometry x="360" y="1680" width="100" height="60" as="geometry" />
        </mxCell>
        <mxCell id="HKxjh_wqK_dI9qvHyycY-58" value="Loop X" style="strokeWidth=2;html=1;shape=mxgraph.flowchart.loop_limit;whiteSpace=wrap;direction=west;" vertex="1" parent="WIyWlLk6GJQsqaUBKTNV-1">
          <mxGeometry x="360" y="1820" width="100" height="60" as="geometry" />
        </mxCell>
      </root>
    </mxGraphModel>
  </diagram>
</mxfile>
